<svg width="600" height="466" viewBox="0 0 600 466" fill="none" xmlns="http://www.w3.org/2000/svg">
<path fill-rule="evenodd" clip-rule="evenodd" d="M450 0.511576C532.843 0.511576 600 67.6689 600 150.512C600 233.354 532.843 300.512 450 300.512C399.556 300.512 354.927 275.611 327.735 237.431C333.762 249.06 341.266 259.801 350 269.404V315.806C350 353.683 371.4 388.31 405.278 405.249C471.768 438.494 550 390.144 550 315.806V289.264C572.071 272.97 589.516 250.771 600 224.997V315.806C600 427.313 482.653 499.838 382.918 449.971C332.1 424.562 300 372.622 300 315.806V315.295C300 315.444 299.998 315.593 299.998 315.742C299.998 315.828 300 315.914 300 316C300 398.843 232.843 466 150 466C67.1573 466 6.18656e-06 398.843 0 316C7.42194e-05 233.157 67.1573 166 150 166C200.444 166 245.073 190.901 272.265 229.081C266.238 217.451 258.734 206.71 250 197.107V150.705C250 112.828 228.6 78.2018 194.722 61.2626C128.232 28.0177 50.0002 76.367 50 150.705V177.247C27.929 193.541 10.4842 215.741 0 241.515V150.705C0.000243552 39.1979 117.347 -33.3265 217.082 16.5409C267.9 41.9496 300 93.8893 300 150.705V151.217C300 151.068 300.002 150.918 300.002 150.769C300.002 150.683 300 150.598 300 150.512C300 67.6689 367.157 0.511576 450 0.511576ZM150 216C94.8999 216 50.2094 260.564 50.002 315.615C50.0521 331.341 53.7914 346.497 60.5781 360.053C60.2451 359.632 59.9162 359.209 59.5898 358.783C75.6243 392.608 110.08 416 150 416C205.228 416 250 371.228 250 316C250 260.771 205.228 216 150 216ZM450 50.5116C394.772 50.5116 350 95.2831 350 150.512C350 205.74 394.772 250.512 450 250.512C505.1 250.512 549.791 205.948 549.998 150.896C549.948 135.171 546.209 120.014 539.422 106.459C539.755 106.879 540.084 107.303 540.41 107.728C524.376 73.9038 489.92 50.5116 450 50.5116Z" fill="url(#paint0_linear_2_28)"/>
<defs>
<linearGradient id="paint0_linear_2_28" x1="484.5" y1="19" x2="334" y2="506" gradientUnits="userSpaceOnUse">
<stop stop-color="#FFC300"/>
<stop offset="1" stop-color="#FB6400"/>
</linearGradient>
</defs>
</svg>
